<?xml version="1.0" encoding="utf-8"?>
<!-- Generator: Adobe Illustrator 26.0.3, SVG Export Plug-In . SVG Version: 6.00 Build 0)  -->
<svg version="1.1" id="Ebene_1" xmlns="http://www.w3.org/2000/svg" xmlns:xlink="http://www.w3.org/1999/xlink" x="0px" y="0px"
	 viewBox="0 0 2500 735.1" style="enable-background:new 0 0 2500 735.1;" xml:space="preserve">
<style type="text/css">
	.st0{fill:url(#Differenzmenge_10_00000143597954253361807730000001513587940412127134_);}
</style>
<linearGradient id="Differenzmenge_10_00000060011687735182796570000002934563004651524764_" gradientUnits="userSpaceOnUse" x1="952.1552" y1="835.4373" x2="952.1552" y2="834.3982" gradientTransform="matrix(1920 0 0 -543.5 -1826887.875 454360.0312)">
	<stop  offset="0" style="stop-color:#AFCA0B"/>
	<stop  offset="1" style="stop-color:#7AA62C"/>
</linearGradient>
<path id="Differenzmenge_10_00000105422728347680302900000006732568132643686531_" style="fill:url(#Differenzmenge_10_00000060011687735182796570000002934563004651524764_);" d="
	M2500,735.1H0V218.4c49.1-15.5,99.1-30.2,148.7-43.8c49.8-13.7,100.6-26.6,150.9-38.4c50.6-11.8,102.1-22.9,153.1-32.8
	c51.2-10,103.4-19.1,155.1-27.1c51.9-8,104.7-15.2,157-21.2c52.6-6.1,106-11.2,158.8-15.3c53.1-4.1,107.1-7.2,160.5-9.3
	c53.8-2.1,108.3-3.1,162.1-3.1c71.1,0,143,1.8,213.8,5.4c70.3,3.6,141.3,9,211,16.1c69.2,7.1,139.2,16,207.9,26.5
	c68.3,10.5,137.1,22.8,204.6,36.7c67.1,13.8,134.7,29.5,201,46.6c65.9,17,132.2,36,197.2,56.2c6.1,1.9,12.3,3.8,18.3,5.8L2500,735.1
	L2500,735.1z"/>
</svg>
