<svg version="1.2" xmlns="http://www.w3.org/2000/svg" viewBox="0 0 100 100" width="100" height="100">
	<title>BALANCE_Icons_UeberUns_Rocket_gruen-svg</title>
	<style>
		.s0 { fill: #7aa62c } 
	</style>
	<path id="Pfad_2676" fill-rule="evenodd" class="s0" d="m98.1 2.4q0.1 0.2 0.2 0.4q0.1 0.2 0.1 0.4q0 0.2 0 0.5l-1.4 14.4q-0.2 1.7-0.5 3.4q-0.3 1.6-0.7 3.2q-0.5 1.6-1 3.2q-0.6 1.6-1.3 3.1v0.1l-0.2 0.4q-0.8 1.8-1.8 3.5q-0.9 1.7-2 3.3q-1.1 1.6-2.3 3q-1.3 1.5-2.7 2.9l-2.8 2.8l-6.7 32.4q0 0.1 0 0.2q-0.1 0.2-0.1 0.3q-0.1 0.1-0.1 0.2q-0.1 0.1-0.2 0.2l-7.3 7.3l-3.7 3.7l-6.5 6.5q-0.1 0.2-0.3 0.3q-0.1 0.1-0.3 0.1q-0.2 0.1-0.3 0.1q-0.2 0.1-0.4 0.1l-0.5-0.1q-0.2-0.1-0.4-0.2q-0.2-0.1-0.4-0.3q-0.2-0.2-0.3-0.4q-0.1-0.2-0.2-0.4l-1.4-5.6l-1-3.8l-2.9-10.8l-5.7-5.7l-6.5 10.9q-0.2 0.2-0.4 0.4q-0.2 0.1-0.4 0.3q-0.2 0.1-0.4 0.1q-0.3 0.1-0.5 0.1h-0.1c-9-0.8-16.9-8.7-17.7-17.6q0-0.2 0.1-0.5q0-0.3 0.2-0.5q0.1-0.2 0.3-0.4q0.2-0.2 0.4-0.4l10.8-6.5l-5.6-5.6l-20.2-5.4q-0.2-0.1-0.5-0.2q-0.2-0.1-0.4-0.3q-0.1-0.2-0.3-0.4q-0.1-0.2-0.1-0.5q-0.1-0.2-0.1-0.4q0-0.3 0.1-0.5q0-0.2 0.1-0.4q0.2-0.2 0.3-0.4l17.5-17.5q0.1-0.1 0.2-0.2q0.1 0 0.2-0.1q0.2-0.1 0.3-0.1q0.1-0.1 0.3-0.1l32.3-6.6l2.9-2.9q1.4-1.4 2.9-2.6q1.5-1.3 3.1-2.4q1.6-1.1 3.3-2q1.7-1 3.5-1.8l0.3-0.1q1.6-0.7 3.2-1.3q1.6-0.5 3.2-1q1.6-0.4 3.3-0.7q1.6-0.3 3.3-0.5l14.4-1.4q0.3 0 0.5 0q0.2 0 0.4 0.1q0.2 0 0.3 0.1q0.2 0.1 0.4 0.3q0.1 0.1 0.2 0.3zm-74.5 45.2l24.5-24.5l-26.3 5.3l-14.8 14.8zm16.7 20.8l-8.7-8.7l-10.6 6.3q0.4 2.5 1.6 4.6q1.1 2.2 2.8 3.9q1.8 1.8 3.9 2.9q2.2 1.2 4.6 1.6zm36.7-16.4l-24.6 24.5l4.4 16.6l14.8-14.9zm5-10.2q1-1.1 2-2.3q1-1.2 1.9-2.4q0.9-1.2 1.7-2.5q0.8-1.4 1.6-2.7q-3.6-1.3-6.9-3.3q-3.2-2.1-5.9-4.8q-2.7-2.7-4.8-5.9q-2-3.3-3.3-6.8q-1.3 0.6-2.7 1.5q-1.3 0.8-2.5 1.7q-1.3 0.9-2.4 1.9q-1.2 1-2.3 2l-31.6 31.6l23.6 23.6l31.6-31.7zm12.5-36.1l-12.2 1.2q-1.4 0.2-2.7 0.4q-1.4 0.2-2.7 0.6q-1.3 0.3-2.6 0.7q-1.3 0.4-2.6 0.9q1.2 3.3 3 6.3q1.9 2.9 4.3 5.4q2.5 2.5 5.5 4.3q2.9 1.8 6.2 2.9q0.5-1.2 0.9-2.5q0.5-1.3 0.8-2.6q0.3-1.3 0.5-2.7q0.3-1.3 0.4-2.6zm-35.9 23.9q1.1-1.1 2.6-1.7q1.5-0.6 3.1-0.6q1.5 0 3 0.6q1.5 0.6 2.6 1.7c2.3 2.3 3 5.8 1.8 8.8c-1.3 3-4.2 5-7.5 5c-3.2 0-6.2-2-7.4-5c-1.3-3-0.6-6.5 1.7-8.8zm8.7 8.8q0.6-0.7 1-1.4q0.3-0.8 0.3-1.7q0-0.8-0.3-1.6q-0.4-0.8-1-1.4q-0.3-0.3-0.6-0.6q-0.4-0.2-0.8-0.3q-0.4-0.2-0.8-0.3q-0.4-0.1-0.8-0.1q-0.4 0-0.8 0.1q-0.5 0.1-0.8 0.3q-0.4 0.1-0.8 0.4q-0.3 0.2-0.6 0.5q-0.6 0.6-0.9 1.4q-0.4 0.8-0.4 1.6q0 0.9 0.4 1.7q0.3 0.8 0.9 1.4l0.1 0.1q0.6 0.5 1.3 0.9q0.8 0.3 1.7 0.3q0.8 0 1.6-0.4q0.8-0.3 1.4-0.9zm-20.4 5.4q1.4-0.6 3-0.7q1.6 0.1 3.1 0.7q1.5 0.6 2.6 1.7c2.3 2.3 3 5.7 1.7 8.7c-1.2 3-4.1 4.9-7.4 4.9c-3.2 0-6.1-1.9-7.3-4.9c-1.3-3-0.6-6.4 1.7-8.7q1.1-1.1 2.6-1.7zm6 10.5q0.6-0.6 0.9-1.4q0.4-0.8 0.4-1.7q0-0.8-0.4-1.6q-0.3-0.8-0.9-1.4q-0.3-0.3-0.6-0.5q-0.4-0.3-0.8-0.4q-0.4-0.2-0.8-0.3q-0.4-0.1-0.8 0q-0.5-0.1-0.9 0q-0.4 0.1-0.8 0.3q-0.4 0.1-0.7 0.4q-0.3 0.2-0.6 0.5c-0.8 0.8-1.1 1.9-1.1 3c0 1.1 0.5 2.1 1.3 2.9c0.7 0.8 1.8 1.2 2.9 1.2c1.1 0.1 2.1-0.3 3-1.1z" />
</svg>