<svg version="1.2" xmlns="http://www.w3.org/2000/svg" viewBox="0 0 100 100" width="100" height="100">
	<title>BALANCE_Icons_UeberUns_Schloss_gruen-svg</title>
	<style>
		.s0 { fill: #7aa62c } 
	</style>
	<g id="Gruppe_1817">
		<path id="Pfad_2673" fill-rule="evenodd" class="s0" d="m22.9 92.6c-1.3-0.5-2.5-1.3-3.5-2.3c-1-1-1.8-2.2-2.3-3.5c-0.6-1.3-0.9-2.7-0.8-4.1v-29.5q0-1.9 0.6-3.7q0.7-1.9 2-3.3q1.3-1.5 3-2.4q1.8-1 3.7-1.2v-11.7c0-6.4 2.6-12.6 7.1-17.2c4.6-4.6 10.8-7.2 17.3-7.2c6.5 0 12.7 2.6 17.3 7.2c4.5 4.6 7.1 10.8 7.1 17.2v11.7q1.9 0.2 3.7 1.2q1.7 0.9 3 2.4q1.3 1.4 2 3.3q0.6 1.8 0.7 3.7v29.5c0 1.4-0.3 2.8-0.9 4.1c-0.5 1.3-1.3 2.5-2.3 3.5c-1 1-2.2 1.8-3.5 2.3c-1.3 0.6-2.7 0.8-4.1 0.9h-46c-1.4-0.1-2.8-0.3-4.1-0.9zm-2.6-9.9q0 1.3 0.5 2.6q0.5 1.2 1.4 2.2q1 0.9 2.2 1.4q1.3 0.5 2.6 0.5h46q1.3 0 2.6-0.5q1.2-0.5 2.2-1.4q0.9-1 1.4-2.2q0.5-1.3 0.5-2.6v-29.5q0-1.3-0.5-2.5q-0.5-1.3-1.4-2.2q-1-1-2.2-1.5q-1.3-0.5-2.6-0.5h-46q-1.3 0-2.6 0.5q-1.2 0.5-2.2 1.5q-0.9 0.9-1.4 2.2q-0.5 1.2-0.5 2.5zm21.9-70.5c-2.5 1-4.7 2.5-6.6 4.4c-1.9 1.9-3.4 4.1-4.4 6.6c-1 2.5-1.6 5.1-1.6 7.8v11.5h3.2l0.1-11.5c0-4.6 1.8-8.9 5-12.1c3.2-3.3 7.6-5.1 12.1-5.1c4.6 0 8.9 1.8 12.1 5.1c3.3 3.2 5.1 7.5 5.1 12.1v11.5h3.2v-11.5c0-2.7-0.5-5.3-1.6-7.8c-1-2.5-2.5-4.7-4.4-6.6c-1.9-1.9-4.1-3.4-6.6-4.4c-2.5-1-5.1-1.6-7.8-1.6c-2.7 0-5.3 0.6-7.8 1.6zm20.9 18.8c0.1-3.5-1.3-6.8-3.8-9.3c-2.5-2.5-5.8-3.8-9.3-3.8c-3.5 0-6.8 1.3-9.3 3.8c-2.4 2.5-3.8 5.8-3.8 9.3v11.5h26.3z" />
		<path id="Pfad_2674" fill-rule="evenodd" class="s0" d="m46 78.9q-0.3 0-0.6-0.1q-0.3-0.2-0.5-0.4q-0.3-0.2-0.4-0.5q-0.1-0.3-0.1-0.6v-18.6q0-0.4 0.1-0.7q0.1-0.3 0.4-0.5q0.2-0.2 0.5-0.3q0.3-0.1 0.6-0.2h8q0.3 0.1 0.6 0.2q0.3 0.1 0.5 0.3q0.3 0.3 0.4 0.5q0.1 0.3 0.1 0.7v18.6q0 0.3-0.1 0.6q-0.1 0.3-0.4 0.5q-0.2 0.2-0.5 0.4q-0.3 0.1-0.6 0.1zm1.6-3.2h4.8v-15.4h-4.8z" />
	</g>
</svg>