<svg version="1.2" xmlns="http://www.w3.org/2000/svg" viewBox="0 0 100 100" width="100" height="100">
	<title>BALANCE_Icons_UeberUns_People_weiss-svg</title>
	<style>
		.s0 { fill: #ffffff } 
	</style>
	<g id="Gruppe_1815">
		<g id="Gruppe_1816">
			<path id="Pfad_2671" fill-rule="evenodd" class="s0" d="m30.3 79.4q0-0.7 0-1.4q0.1-0.7 0.1-1.4q0.1-0.7 0.2-1.4q0.1-0.7 0.2-1.4h-26q-0.3 0-0.6-0.2q-0.3-0.1-0.6-0.3q-0.2-0.3-0.3-0.5q-0.1-0.3-0.1-0.7c0.2-13.9 8.1-20.9 8.4-21.2q0.3-0.2 0.5-0.3q0.3-0.1 0.6-0.1q0.3 0 0.6 0.1q0.2 0.1 0.4 0.3c8.9 7.3 18.5 0.1 18.6 0q0.3-0.2 0.5-0.2q0.3-0.1 0.6-0.1q0.3 0 0.5 0.1q0.3 0.1 0.5 0.3q0.8 0.7 1.5 1.5q0.7 0.8 1.3 1.7q0.6 0.8 1.2 1.8q0.5 0.9 0.9 1.8q0.2 0 0.4 0q0.2 0 0.4 0q0.2 0 0.4 0.1q0.2 0.1 0.3 0.2c8.9 7.3 18.3 0.3 18.6 0q0.2-0.1 0.4-0.2q0.2-0.1 0.4-0.1q0.2 0 0.5 0q0.2 0 0.4 0.1q0.4-1 1-1.9q0.6-0.9 1.2-1.8q0.6-0.9 1.4-1.7q0.7-0.8 1.5-1.6q0.2-0.2 0.4-0.3q0.3-0.1 0.6-0.1q0.3 0 0.6 0.1q0.2 0.1 0.4 0.3c9 7.3 18.5 0.1 18.6 0q0.3-0.2 0.5-0.2q0.3-0.1 0.6-0.1q0.3 0 0.6 0.1q0.2 0.1 0.4 0.3c8.3 7.6 7.9 20.7 7.9 21.2q0 0.4-0.1 0.7q-0.2 0.2-0.4 0.5q-0.2 0.2-0.5 0.3q-0.3 0.1-0.6 0.1h-26.2q0.1 0.7 0.2 1.4q0.1 0.7 0.1 1.5q0.1 0.7 0.1 1.4q0 0.7 0 1.4q0 0.3-0.1 0.6q-0.2 0.3-0.4 0.5q-0.2 0.2-0.5 0.3q-0.3 0.2-0.6 0.2h-35.9q-0.3 0-0.6-0.2q-0.3-0.1-0.6-0.3q-0.2-0.3-0.3-0.6q-0.1-0.3-0.1-0.6m37.1-25.1q-0.6 0.7-1.1 1.4q-0.6 0.7-1.1 1.5q-0.4 0.8-0.9 1.5q-0.4 0.8-0.8 1.6q0.9 1.2 1.6 2.4q0.8 1.2 1.4 2.5q0.6 1.3 1.1 2.6q0.4 1.3 0.7 2.7h25.2c-0.1-3.3-1.1-11.1-5.9-16.3c-3.1 1.9-11.7 6-20.2 0.1zm-30 10.8q-1.1 1.9-1.9 4q-0.8 2.1-1.3 4.3q-0.5 2.1-0.6 4.4h32.5c-0.1-3.3-1-11.2-5.9-16.3c-3.1 1.8-11.7 5.9-20.2 0q-1.4 1.7-2.6 3.6zm-5.8 5.4q0.4-1.4 0.9-2.7q0.5-1.4 1.2-2.7q0.7-1.3 1.4-2.5q0.8-1.2 1.7-2.4q-0.3-0.8-0.7-1.6q-0.4-0.8-0.9-1.5q-0.4-0.8-1-1.5q-0.5-0.7-1.1-1.4c-3.1 1.9-11.7 6-20.2 0.1q-1.4 1.7-2.6 3.6q-1.1 1.9-1.9 4q-0.9 2.1-1.3 4.2q-0.5 2.2-0.6 4.4z" />
			<path id="Pfad_2672" fill-rule="evenodd" class="s0" d="m11.5 23.9c2.6-2.8 6.2-4.5 10.1-4.8c3.8-0.3 7.6 0.8 10.6 3.2c3.1 2.4 5.1 5.8 5.7 9.6q0.1-0.1 0.2-0.3q0.2-0.1 0.3-0.3q0.2-0.2 0.3-0.3q0.2-0.2 0.3-0.3q0.2-0.2 0.4-0.4q0.2-0.2 0.4-0.4q0.2-0.1 0.4-0.3q0.2-0.2 0.4-0.3c1.6-1.2 3.5-2.1 5.4-2.6c2-0.5 4-0.6 6-0.4c2 0.3 3.9 1 5.6 2c1.7 1 3.2 2.4 4.5 4c0.2-1.9 0.8-3.6 1.6-5.2c0.9-1.7 2.1-3.1 3.4-4.3c1.4-1.3 3-2.2 4.7-2.9c1.7-0.6 3.6-1 5.4-1h0.4c4 0.2 7.8 1.9 10.6 4.8c2.7 2.9 4.3 6.8 4.2 10.8c0 4-1.7 7.8-4.5 10.6c-2.8 2.9-6.7 4.5-10.7 4.5q-1.8 0-3.5-0.4q-1.7-0.4-3.3-1.2q-1.6-0.8-3-1.9q-1.3-1.2-2.4-2.6c-0.2 1.8-0.8 3.6-1.7 5.2c-0.8 1.7-2 3.1-3.4 4.3c-1.4 1.3-2.9 2.2-4.7 2.9c-1.7 0.6-3.5 1-5.4 1c-1.8 0-3.6-0.4-5.3-1c-1.7-0.6-3.2-1.6-4.6-2.7c-1.4-1.2-2.6-2.6-3.4-4.2c-0.9-1.6-1.5-3.3-1.8-5.1q-0.1 0.1-0.3 0.3q-0.1 0.1-0.2 0.3q-0.2 0.2-0.3 0.3q-0.2 0.2-0.3 0.3q-1.1 1.1-2.3 1.9q-1.3 0.9-2.7 1.4q-1.4 0.6-2.9 0.9q-1.4 0.3-2.9 0.3c-2.1 0-4.1-0.4-5.9-1.2c-1.9-0.7-3.6-1.9-5-3.3c-1.4-1.4-2.5-3.1-3.3-5c-0.8-1.8-1.2-3.8-1.2-5.8c0-3.9 1.5-7.6 4.1-10.4zm53.9 8c-0.5 2.4-0.3 4.8 0.7 7c0.9 2.2 2.4 4.1 4.4 5.4c2 1.4 4.4 2.1 6.8 2.1c4 0 7.8-2 10-5.4c2.3-3.4 2.7-7.6 1.2-11.4c-1.6-3.7-4.9-6.4-8.9-7.2c-3.9-0.8-8 0.5-10.9 3.3c-1.7 1.7-2.9 3.9-3.3 6.2zm-27.4 7.3c-0.5 2.3-0.2 4.8 0.7 7c0.9 2.2 2.4 4.1 4.4 5.4c2 1.3 4.4 2.1 6.8 2c4 0 7.8-2 10-5.3c2.2-3.4 2.7-7.6 1.1-11.4c-1.5-3.7-4.8-6.4-8.8-7.2c-4-0.8-8 0.5-10.9 3.3c-1.7 1.7-2.9 3.8-3.3 6.2zm-24-13.6c-2.4 2.3-3.7 5.4-3.7 8.7c0 3.2 1.3 6.4 3.7 8.7c2.3 2.2 5.5 3.5 8.8 3.4c3.2 0.1 6.4-1.2 8.7-3.4c2.4-2.3 3.7-5.5 3.7-8.7c0-3.3-1.3-6.4-3.7-8.7c-2.3-2.3-5.5-3.5-8.8-3.4c-3.2-0.1-6.4 1.1-8.7 3.4z" />
		</g>
	</g>
</svg>