<svg version="1.2" xmlns="http://www.w3.org/2000/svg" viewBox="0 0 100 100" width="100" height="100">
	<title>BALANCE_Icons_UeberUns_Hands_weiss-svg</title>
	<style>
		.s0 { fill: #ffffff } 
	</style>
	<path id="Layer" fill-rule="evenodd" class="s0" d="m43.3 92.1q-0.8 0-1.6-0.2q-0.8-0.1-1.6-0.5q-0.7-0.3-1.4-0.8q-0.7-0.5-1.2-1.1q-0.4-0.3-0.6-0.7q-0.3-0.4-0.5-0.9q-0.2-0.4-0.4-0.8q-0.2-0.5-0.3-1q-1.1 0.5-2.2 0.6q-1.2 0.2-2.3 0q-1.2-0.2-2.2-0.6q-1.1-0.5-2-1.3q-0.6-0.6-1.1-1.3q-0.6-0.7-0.9-1.4q-0.3-0.8-0.5-1.7q-0.2-0.8-0.2-1.7c-0.3 0-0.6 0-0.9 0q-0.9-0.1-1.7-0.3q-0.9-0.3-1.7-0.8q-0.7-0.4-1.4-1.1q-0.7-0.6-1.2-1.3q-0.6-1-1-2.2q-0.3-1.1-0.3-2.3q0-1.2 0.3-2.4q0.4-1.1 1-2.1q-0.2-0.1-0.5-0.2q-0.2-0.1-0.5-0.2q-0.2-0.2-0.4-0.3q-0.3-0.1-0.5-0.3q-0.2-0.1-0.3-0.2q-0.2-0.1-0.3-0.2q-0.2-0.2-0.4-0.3q-0.1-0.1-0.3-0.3q-1.1-1.1-1.7-2.6q-0.6-1.5-0.6-3.1q0-1.6 0.6-3.1q0.6-1.5 1.7-2.6l-1.8-1.8c-2.3-2.4-4.2-5.1-5.4-8.2c-1.3-3-1.9-6.3-1.9-9.6c0-3.3 0.6-6.5 1.9-9.6c1.2-3 3.1-5.8 5.4-8.1l0.3-0.3c2.4-2.3 5.2-4.2 8.4-5.4c3.1-1.3 6.4-1.9 9.8-1.9c3.4 0 6.7 0.7 9.8 2c3.1 1.3 5.9 3.2 8.3 5.6l1.2 1.3l0.7-0.7l1.1-1.2l0.5-0.3c2.4-2 5.3-3.6 8.3-4.7c3-1 6.2-1.5 9.5-1.4c3.2 0.2 6.3 0.9 9.3 2.2c2.9 1.3 5.6 3.1 7.9 5.4c2.3 2.3 4.1 5 5.4 8.1c1.2 3 1.9 6.3 1.9 9.6c0 3.3-0.7 6.5-1.9 9.5c-1.3 3.1-3.1 5.8-5.4 8.2l-1.3 1.3q1 1.1 1.5 2.5q0.6 1.4 0.6 2.9q0 1.5-0.5 2.9q-0.6 1.4-1.5 2.5q-0.4 0.5-0.9 0.9q-0.4 0.3-0.9 0.6q-0.5 0.4-1.1 0.6q-0.5 0.2-1.1 0.4q0.4 1 0.6 2.2q0.1 1.1 0 2.3q-0.2 1.1-0.7 2.2q-0.5 1-1.3 1.9q-0.5 0.6-1.2 1.1q-0.7 0.5-1.4 0.9q-0.8 0.3-1.6 0.5q-0.8 0.2-1.6 0.2h-0.1q0 1-0.3 2q-0.2 1-0.7 1.9q-0.4 0.9-1.1 1.6q-0.7 0.8-1.5 1.3q-1 0.7-2.2 1q-1.1 0.4-2.3 0.4q-1.2 0-2.3-0.4q-1.2-0.3-2.2-0.9q-0.2 0.6-0.5 1.2q-0.3 0.6-0.7 1.1q-0.5 0.6-0.9 1q-0.5 0.5-1.1 0.9q-0.5 0.3-1 0.5q-0.5 0.3-1.1 0.5q-0.5 0.2-1.1 0.2q-0.6 0.1-1.2 0.1q-0.6 0-1.1-0.1q-0.6 0-1.1-0.2q-0.6-0.2-1.1-0.4q-0.5-0.2-1-0.5l-1.3 1.2q-0.6 0.6-1.2 1q-0.6 0.4-1.4 0.7q-0.7 0.3-1.5 0.5q-0.7 0.1-1.5 0.1zm-2-10.7q-0.5 0.5-0.8 1.1q-0.3 0.7-0.3 1.4q-0.1 0.7 0.2 1.3q0.2 0.7 0.6 1.2q0.2 0.3 0.5 0.5q0.3 0.2 0.6 0.3q0.3 0.1 0.7 0.2q0.3 0.1 0.7 0.1h0.1q0.3 0 0.6-0.1q0.4 0 0.7-0.2q0.3-0.1 0.6-0.3q0.3-0.2 0.5-0.4l1-1l-4.9-4.9zm-10.5-68.9q-2.1 0-4.2 0.4q-2 0.4-3.9 1.2q-2 0.8-3.7 2q-1.7 1.1-3.2 2.6c-1.9 1.9-3.4 4.2-4.4 6.6c-1 2.5-1.5 5.1-1.5 7.8c0 2.7 0.5 5.3 1.5 7.8c1 2.5 2.5 4.7 4.4 6.6l36.4 36.4q0.2 0.3 0.5 0.5q0.3 0.2 0.7 0.4q0.3 0.1 0.7 0.2q0.3 0 0.7 0q0.2 0 0.5 0q0.2 0 0.5-0.1q0.2-0.1 0.4-0.2q0.3-0.1 0.5-0.2q0.6-0.4 1-1q0.4-0.7 0.5-1.4q0.1-0.7-0.1-1.4q-0.2-0.8-0.7-1.3l-0.2-0.2l-16.3-16.3q-0.2-0.2-0.3-0.4q-0.1-0.2-0.2-0.4q-0.1-0.2-0.1-0.4q-0.1-0.3-0.1-0.5q0-0.2 0.1-0.4q0-0.2 0.1-0.4q0.1-0.3 0.2-0.4q0.1-0.2 0.3-0.4q0.3-0.3 0.7-0.5q0.4-0.2 0.9-0.2q0.5 0 0.9 0.2q0.5 0.2 0.8 0.5l16.3 16.3l0.2 0.2l3.6 3.6q0.4 0.5 1 0.7q0.5 0.3 1.2 0.4q0.6 0.1 1.2-0.1q0.6-0.1 1.1-0.4q0.1-0.1 0.1-0.1q0.1-0.1 0.1-0.1q0.1 0 0.1-0.1q0.1 0 0.1-0.1q0.3-0.2 0.5-0.5q0.2-0.3 0.3-0.6q0.2-0.3 0.2-0.7q0.1-0.3 0.1-0.6q0-0.4 0-0.7q-0.1-0.4-0.2-0.7q-0.2-0.3-0.4-0.6q-0.1-0.3-0.4-0.5l-20.3-20.4q-0.3-0.4-0.5-0.8q-0.1-0.4-0.1-0.8q0-0.5 0.2-0.9q0.2-0.4 0.5-0.7q0.2-0.2 0.4-0.3q0.1-0.1 0.4-0.2q0.2-0.1 0.4-0.1q0.2-0.1 0.4-0.1q0.3 0 0.5 0.1q0.2 0 0.4 0.1q0.2 0.1 0.4 0.2q0.2 0.1 0.3 0.3l20.6 20.5q0.2 0.2 0.5 0.4q0.2 0.1 0.5 0.2q0.3 0.1 0.6 0.1q0.2 0.1 0.5 0.1h0.1q0.4 0 0.7-0.1q0.4-0.1 0.7-0.2q0.3-0.2 0.6-0.4q0.3-0.2 0.5-0.5q0.4-0.5 0.7-1.2q0.2-0.6 0.1-1.3q0-0.7-0.3-1.4q-0.3-0.6-0.8-1.1l-20.2-20.1q-0.3-0.3-0.4-0.7q-0.1-0.5-0.1-0.9q0-0.4 0.2-0.9q0.1-0.4 0.5-0.7q0.3-0.3 0.7-0.4q0.4-0.2 0.9-0.2q0.4 0 0.9 0.2q0.4 0.1 0.7 0.4l17.4 17.4q0.2 0.2 0.5 0.4q0.3 0.2 0.6 0.3q0.3 0.1 0.7 0.2q0.3 0.1 0.7 0.1q0.3-0.1 0.7-0.1q0.3-0.1 0.6-0.2q0.3-0.2 0.6-0.4q0.3-0.2 0.6-0.4q0.4-0.6 0.6-1.2q0.2-0.7 0.2-1.4q-0.1-0.7-0.4-1.3q-0.3-0.7-0.8-1.1l-22.9-22.9l-7.6 7.6q-0.6 0.6-1.3 1.1q-0.7 0.5-1.6 0.8q-0.8 0.4-1.6 0.5q-0.9 0.2-1.8 0.2h-0.8q-1-0.1-1.9-0.4q-1-0.3-1.9-0.8q-0.8-0.5-1.6-1.1q-0.7-0.7-1.2-1.6q-0.9-1.3-1.3-2.8q-0.3-1.6-0.2-3.1q0.2-1.6 0.9-3q0.7-1.4 1.9-2.5l7.4-7.6l-1.3-1.3q-1.5-1.4-3.2-2.6q-1.7-1.2-3.6-1.9q-2-0.8-4-1.2q-2-0.4-4.1-0.4zm-0.8 63.8q-0.5 0.5-0.7 1.1q-0.3 0.7-0.3 1.4q0.1 0.7 0.3 1.4q0.3 0.6 0.9 1.1q0.5 0.4 1.2 0.6q0.6 0.2 1.3 0.2q0.7-0.1 1.3-0.4q0.6-0.3 1.1-0.8l2.8-2.7l0.1-0.2l0.9-0.8l-4.9-4.9zm-8-8.3q-0.4 0.4-0.7 0.9q-0.3 0.6-0.4 1.2q-0.1 0.6 0.1 1.3q0.1 0.6 0.4 1.1q0.1 0.1 0.1 0.1q0.1 0.1 0.2 0.2q0 0.1 0.1 0.1q0 0.1 0.1 0.2q0.5 0.4 1.1 0.7q0.6 0.3 1.3 0.3q0.7 0 1.3-0.3q0.6-0.3 1.1-0.7l4-4l-4.9-4.9zm-3.8-6.7q0.2 0.1 0.4 0.2q0.3 0.1 0.5 0.2q0.2 0.1 0.5 0.1q0.2 0.1 0.5 0.1q0.3-0.1 0.6-0.1q0.4-0.1 0.7-0.2q0.3-0.1 0.6-0.3q0.3-0.2 0.5-0.4l-4.9-4.9q-0.3 0.3-0.5 0.6q-0.2 0.3-0.3 0.7q-0.1 0.3-0.2 0.7q0 0.4 0 0.8q0 0.4 0.2 0.7q0.1 0.4 0.3 0.7q0.2 0.3 0.4 0.6q0.3 0.3 0.6 0.5zm64.9-11.9l1.2-1.3c1.9-1.9 3.4-4.1 4.4-6.6c1-2.5 1.6-5.1 1.6-7.8c0-2.7-0.6-5.4-1.6-7.8c-1-2.5-2.5-4.8-4.4-6.7l-0.2-0.3c-2-1.9-4.4-3.4-6.9-4.4c-2.6-1-5.3-1.5-8-1.5c-2.8 0-5.5 0.6-8 1.7c-2.6 1-4.9 2.6-6.8 4.5l-11.5 11.5q-0.6 0.5-0.9 1.2q-0.3 0.7-0.4 1.5q-0.1 0.7 0 1.5q0.2 0.7 0.6 1.4q0.2 0.4 0.6 0.7q0.3 0.3 0.7 0.6q0.4 0.2 0.9 0.4q0.4 0.1 0.9 0.2h0.4q0.4 0 0.8-0.1q0.4-0.1 0.8-0.3q0.4-0.1 0.8-0.4q0.3-0.2 0.6-0.5l11.8-11.8q0.2-0.1 0.4-0.3q0.1-0.1 0.4-0.2q0.2-0.1 0.4-0.1q0.2 0 0.4 0q0.2 0 0.5 0q0.2 0 0.4 0.1q0.2 0.1 0.4 0.2q0.2 0.1 0.3 0.3q0.2 0.2 0.3 0.3q0.1 0.2 0.2 0.4q0.1 0.2 0.2 0.5q0 0.2 0 0.4q0 0.2 0 0.5q0 0.2-0.1 0.4q-0.1 0.2-0.2 0.4q-0.1 0.2-0.3 0.4l-0.8 0.8z" />
</svg>