<svg version="1.2" xmlns="http://www.w3.org/2000/svg" viewBox="0 0 100 100" width="100" height="100">
	<title>BALANCE_Icons_UeberUns_Diagramm_weiss-svg</title>
	<style>
		.s0 { fill: #ffffff } 
	</style>
	<g id="Gruppe_1818">
		<path id="Pfad_2677" fill-rule="evenodd" class="s0" d="m16.1 86.4q-1.3 0-2.5-0.4q-1.1-0.5-2.1-1.3q-0.9-0.9-1.4-2q-0.6-1.2-0.6-2.5v-45.4q0-1.3 0.6-2.4q0.5-1.2 1.4-2.1q1-0.8 2.1-1.3q1.2-0.4 2.5-0.4h12q1.3 0 2.5 0.4q1.2 0.5 2.1 1.3q0.9 0.9 1.5 2.1q0.5 1.1 0.5 2.4v45.4q0 1.3-0.5 2.5q-0.6 1.1-1.5 2q-0.9 0.9-2.1 1.3q-1.2 0.4-2.5 0.4zm-3-5q0.3 0.5 0.7 0.9q0.5 0.5 1.1 0.7q0.6 0.1 1.2 0.1h12q0.6 0 1.2-0.1q0.6-0.2 1-0.7q0.5-0.4 0.8-0.9q0.3-0.6 0.3-1.2v-45.4q0-0.6-0.3-1.2q-0.3-0.5-0.8-0.9q-0.4-0.4-1-0.6q-0.6-0.2-1.2-0.2h-12q-0.6 0-1.2 0.2q-0.6 0.2-1.1 0.6q-0.4 0.4-0.7 0.9q-0.3 0.6-0.3 1.2v45.4q0 0.6 0.3 1.2z" />
		<path id="Pfad_2678" fill-rule="evenodd" class="s0" d="m84 5.6c3.6 0 6.6 3.7 6.6 8.1v64.6c0 4.5-2.9 8.1-6.6 8.1h-12.1c-3.6 0-6.6-3.6-6.6-8.1v-64.6c0-4.4 3-8.1 6.6-8.1zm3.3 8.1c0-2.6-1.5-4.8-3.3-4.8h-12c-1.8 0-3.3 2.2-3.3 4.8v64.6c0 2.6 1.5 4.8 3.3 4.8h12c1.8 0 3.3-2.2 3.3-4.8v-64.6z" />
		<path id="Pfad_2679" fill-rule="evenodd" class="s0" d="m37 81.8v-30c0-2.7 2.9-4.7 6.6-4.7h12c3.7 0 6.6 2 6.6 4.7v30c0 2.6-2.9 4.6-6.6 4.6h-12c-3.7 0-6.6-2-6.6-4.6zm3.3-0.1c0 0.4 1.3 1.4 3.3 1.4h12c2.1 0 3.3-1 3.3-1.4v-30c0-0.4-1.2-1.3-3.3-1.3h-12c-2.1 0-3.3 0.9-3.3 1.3z" />
		<path id="Pfad_2680" class="s0" d="m9.5 91.9c0-1.4 1.6-2.5 3.5-2.5h74c2 0 3.6 1.1 3.6 2.5c0 1.3-1.6 2.5-3.6 2.5h-74c-2 0-3.6-1.2-3.6-2.5" />
	</g>
</svg>