<svg version="1.2" xmlns="http://www.w3.org/2000/svg" viewBox="0 0 100 100" width="100" height="100">
	<title>BALANCE_Icons_UeberUns_Point_gruen-svg</title>
	<style>
		.s0 { fill: none;stroke: #7aa62c;stroke-linecap: round;stroke-linejoin: round;stroke-width: 4 } 
	</style>
	<g id="Icon_feather-map-pin">
		<path id="Pfad_2669" class="s0" d="m80.8 43.2c0 23.9-30.8 44.4-30.8 44.4c0 0-30.7-20.5-30.7-44.4c0-8.2 3.2-16 9-21.8c5.7-5.7 13.5-9 21.7-9c8.2 0 16 3.3 21.7 9c5.8 5.8 9.1 13.6 9.1 21.8z" />
		<path id="Pfad_2670" class="s0" d="m60.3 43.2c0 4.1-2.5 7.9-6.4 9.4c-3.8 1.6-8.2 0.7-11.1-2.2c-3-2.9-3.9-7.3-2.3-11.2c1.6-3.8 5.4-6.3 9.5-6.3c1.3 0 2.7 0.3 3.9 0.8c1.3 0.5 2.4 1.3 3.3 2.2c1 1 1.8 2.1 2.3 3.3c0.5 1.3 0.8 2.6 0.8 4z" />
	</g>
</svg>