<?xml version="1.0" encoding="utf-8"?>
<!-- Generator: Adobe Illustrator 25.0.1, SVG Export Plug-In . SVG Version: 6.00 Build 0)  -->
<svg version="1.0" id="Rotaria_x5F_web_x5F_29_x5F_Iconexport.fw-Seite_x25_201"
	 xmlns="http://www.w3.org/2000/svg" xmlns:xlink="http://www.w3.org/1999/xlink" x="0px" y="0px" viewBox="0 0 136 136"
	 style="enable-background:new 0 0 136 136;" xml:space="preserve">
<style type="text/css">
	.st0{fill:none;}
	.st1{fill:#FFCC00;}
</style>
<path class="st0" d="z"/>
<path class="st1" d="M116.6,59.5H98.1v21.7h18.5V59.5z M116.7,57.1c0,0-8.2-6.2-15.4-9.7C94,43.9,85.7,42,85.7,42s-3.8,0.7-8.7,2.5
	c8.2,4.1,16.8,10.3,19.9,12.6H116.7z"/>
<path class="st1" d="M21.2,88.9h73.1V63.3H21.2V88.9z"/>
<path class="st1" d="M21.2,60.4L21.2,60.4c0,0,9.4-7.2,18.4-11.6c9-4.4,18.1-6.2,18.1-6.2s9.8,2.2,18.4,6.3
	c8.5,4.1,18.2,11.4,18.2,11.4H21.2z"/>
<path class="st1" d="M68,9.5C35.8,9.5,9.5,35.8,9.5,68c0,32.2,26.2,58.5,58.5,58.5c32.2,0,58.5-26.2,58.5-58.5
	C126.5,35.8,100.2,9.5,68,9.5L68,9.5z M68,136c-37.5,0-68-30.5-68-68S30.5,0,68,0c37.5,0,68,30.5,68,68S105.5,136,68,136L68,136z"/>
<path class="st0" d="z"/>
</svg>
